<svg width="21" height="28" viewBox="0 0 21 28" fill="none" xmlns="http://www.w3.org/2000/svg">
<path d="M3.6249 23.401H7.95135V27.0262H1.81245C1.31205 27.0262 0.858752 26.8233 0.530852 26.4954C0.202952 26.1663 0 25.7134 0 25.2138V12.7746H0.0196509C0.0445509 12.5934 0.0964523 12.4156 0.174902 12.2488C0.285752 12.0145 0.447599 11.8005 0.658499 11.626L13.2031 1.22743L13.2168 1.24378C13.3218 1.17853 13.4343 1.12378 13.5526 1.08103C13.7419 1.01248 13.9473 0.974532 14.1616 0.973782C14.6596 0.971982 15.1119 1.17238 15.4398 1.49758C15.7671 1.82233 15.9712 2.27323 15.9732 2.77198L16.0221 10.4755L19.5922 13.3764C19.83 13.542 20.0263 13.7635 20.1619 14.0212C20.2945 14.2734 20.3698 14.5602 20.3698 14.8632V25.2136C20.3698 25.7133 20.1667 26.1661 19.8388 26.4942C19.5109 26.8231 19.0576 27.0261 18.5572 27.0261H12.4184V23.4009H16.7446V15.7185L13.0821 12.7426C12.8594 12.5614 12.6901 12.3373 12.5785 12.0924C12.4629 11.8386 12.4078 11.5618 12.4162 11.2858L12.3867 6.60688L3.62505 13.8694V23.4009L3.6249 23.401Z" fill="#6666FF"/>
</svg>
