<svg width="692" height="178" viewBox="0 0 692 178" fill="none" xmlns="http://www.w3.org/2000/svg">
<path d="M23.1994 143.534H50.8886V166.736H11.5997C8.39713 166.736 5.49599 165.437 3.39743 163.338C1.29887 161.232 0 158.334 0 155.136V75.5252H0.125766C0.285126 74.3655 0.617272 73.2279 1.11935 72.1604C1.82879 70.6609 2.86463 69.291 4.21439 68.1745L84.5002 1.62345L84.5875 1.72808C85.2595 1.31048 85.9795 0.960091 86.737 0.686491C87.9485 0.247771 89.2627 0.00487696 90.6345 7.69567e-05C93.8217 -0.011443 96.7162 1.27113 98.8147 3.35241C100.909 5.43081 102.216 8.31657 102.228 11.5086L102.541 60.8113L125.39 79.3767C126.912 80.4366 128.169 81.8545 129.036 83.5038C129.885 85.1175 130.367 86.953 130.367 88.8922V155.135C130.367 158.333 129.067 161.231 126.969 163.331C124.87 165.436 121.969 166.735 118.766 166.735H79.4774V143.534H107.166V94.3661L83.7254 75.3207C82.2998 74.161 81.217 72.7268 80.5027 71.1591C79.7626 69.5348 79.4102 67.7636 79.464 65.9972L79.2749 36.0519L23.2003 82.5322V143.534L23.1994 143.534Z" fill="#6666FF"/>
<path d="M171.834 146.838V27.2381H193.04V80.5066H190.665C193.153 74.5124 197.027 69.9601 202.285 66.8506C207.544 63.7402 213.511 62.185 220.184 62.185C226.857 62.185 232.341 63.4292 236.639 65.9166C240.936 68.4049 244.16 72.1652 246.308 77.1985C248.457 82.2318 249.531 88.5927 249.531 96.2833V146.838H228.325V97.3018C228.325 93.0049 227.789 89.4989 226.715 86.7841C225.64 84.0692 224 82.0618 221.795 80.762C219.589 79.4612 216.79 78.8113 213.397 78.8113C209.326 78.8113 205.763 79.6878 202.71 81.4407C199.656 83.1937 197.281 85.682 195.585 88.9047C193.888 92.1284 193.041 95.8887 193.041 100.187V146.839H171.835L171.834 146.838ZM305.184 148.534C295.797 148.534 287.711 146.781 280.925 143.275C274.139 139.769 268.908 134.793 265.233 128.347C261.558 121.901 259.719 114.267 259.719 105.445C259.719 96.8497 261.501 89.3281 265.064 82.8817C268.626 76.4353 273.546 71.3742 279.823 67.6983C286.099 64.0225 293.253 62.185 301.283 62.185C309.199 62.185 315.985 63.8813 321.64 67.274C327.296 70.6666 331.678 75.4733 334.787 81.6941C337.898 87.9149 339.452 95.3223 339.452 103.917V110.195H276.853V97.9796H324.524L321.809 100.525C321.809 92.834 320.113 86.9252 316.719 82.7972C313.327 78.6692 308.463 76.6052 302.13 76.6052C297.38 76.6052 293.337 77.7082 290.001 79.9134C286.664 82.1185 284.12 85.2289 282.367 89.2436C280.614 93.2583 279.737 98.0362 279.737 103.578V104.766C279.737 110.987 280.699 116.132 282.621 120.204C284.544 124.275 287.428 127.329 291.273 129.364C295.118 131.399 299.868 132.418 305.523 132.418C310.16 132.418 314.797 131.711 319.434 130.297C324.071 128.883 328.312 126.649 332.158 123.596L338.096 137.846C334.137 141.127 329.161 143.727 323.167 145.65C317.172 147.573 311.178 148.534 305.184 148.534ZM378.31 148.534C368.47 148.534 361.204 145.848 356.51 140.476C351.817 135.104 349.471 127.215 349.471 116.81V27.2372H370.676V115.791C370.676 119.072 371.156 121.87 372.118 124.19C373.079 126.508 374.521 128.233 376.444 129.363C378.367 130.494 380.742 131.059 383.569 131.059C384.813 131.059 386.057 131.003 387.301 130.89C388.545 130.777 389.732 130.55 390.864 130.212L390.524 147.007C388.489 147.459 386.481 147.827 384.502 148.109C382.523 148.392 380.459 148.533 378.31 148.533V148.534ZM396.81 177.374V63.8804H417.507V81.3543H415.811C417.507 75.5866 420.984 70.9498 426.244 67.4439C431.503 63.938 437.638 62.185 444.651 62.185C451.889 62.185 458.251 63.938 463.736 67.4439C469.221 70.9498 473.49 75.8977 476.544 82.2874C479.598 88.6772 481.125 96.3399 481.125 105.274C481.125 114.095 479.598 121.758 476.544 128.261C473.49 134.764 469.25 139.768 463.821 143.274C458.391 146.78 452.003 148.533 444.651 148.533C437.752 148.533 431.701 146.808 426.499 143.359C421.297 139.91 417.791 135.414 415.981 129.872H418.017V177.373H396.811L396.81 177.374ZM438.712 132.418C445.046 132.418 450.135 130.127 453.98 125.547C457.826 120.967 459.748 114.208 459.748 105.274C459.748 96.2266 457.825 89.4692 453.98 85.0014C450.134 80.5335 445.045 78.3006 438.712 78.3006C432.379 78.3006 427.289 80.5345 423.444 85.0014C419.599 89.4692 417.677 96.2266 417.677 105.274C417.677 114.208 419.599 120.966 423.444 125.547C427.29 130.127 432.379 132.418 438.712 132.418ZM532.704 148.534C523.317 148.534 515.231 146.781 508.445 143.275C501.659 139.769 496.428 134.793 492.753 128.347C489.078 121.901 487.239 114.267 487.239 105.445C487.239 96.8497 489.021 89.3281 492.584 82.8817C496.146 76.4353 501.066 71.3742 507.343 67.6983C513.62 64.0225 520.773 62.185 528.803 62.185C536.719 62.185 543.505 63.8813 549.16 67.274C554.816 70.6666 559.198 75.4733 562.308 81.6941C565.418 87.9149 566.973 95.3223 566.973 103.917V110.195H504.374V97.9796H552.045L549.33 100.525C549.33 92.834 547.634 86.9252 544.241 82.7972C540.848 78.6692 535.985 76.6052 529.652 76.6052C524.902 76.6052 520.859 77.7082 517.523 79.9134C514.186 82.1185 511.642 85.2289 509.889 89.2436C508.136 93.2583 507.259 98.0362 507.259 103.578V104.766C507.259 110.987 508.221 116.132 510.144 120.204C512.066 124.275 514.951 127.329 518.795 129.364C522.641 131.399 527.391 132.418 533.046 132.418C537.683 132.418 542.32 131.711 546.957 130.297C551.594 128.883 555.835 126.649 559.681 123.596L565.618 137.846C561.659 141.127 556.684 143.727 550.69 145.65C544.695 147.573 538.701 148.534 532.707 148.534H532.704ZM576.991 146.838V63.8814H597.687V83.8993H595.991C597.574 77.113 600.684 71.9396 605.321 68.377C609.958 64.8145 616.122 62.7505 623.812 62.185L630.258 61.6762L631.616 79.6589L619.402 80.8465C612.502 81.5252 607.3 83.6458 603.794 87.2074C600.288 90.77 598.535 95.7745 598.535 102.221V146.838H576.99H576.991ZM636.715 146.838V63.8814H657.412V83.8993H655.716C657.299 77.113 660.409 71.9396 665.046 68.377C669.683 64.8145 675.847 62.7505 683.536 62.185L689.983 61.6762L691.34 79.6589L679.126 80.8465C672.227 81.5252 667.024 83.6458 663.518 87.2074C660.012 90.77 658.26 95.7745 658.26 102.221V146.838H636.714H636.715Z" fill="black"/>
</svg>
