<svg width="84" height="84" viewBox="0 0 84 84" fill="none" xmlns="http://www.w3.org/2000/svg">
<path d="M25.334 0.333374H58.6673C65.2977 0.333374 71.6566 2.96729 76.345 7.6557C81.0334 12.3441 83.6673 18.703 83.6673 25.3334V58.6667C83.6673 65.2971 81.0334 71.656 76.345 76.3444C71.6566 81.0328 65.2977 83.6667 58.6673 83.6667H25.334C18.7036 83.6667 12.3447 81.0328 7.65632 76.3444C2.96791 71.656 0.333984 65.2971 0.333984 58.6667L0.333984 25.3334C0.333984 18.703 2.96791 12.3441 7.65632 7.6557C12.3447 2.96729 18.7036 0.333374 25.334 0.333374ZM25.334 8.66671C20.9137 8.66671 16.6745 10.4227 13.5489 13.5483C10.4233 16.6739 8.66732 20.9131 8.66732 25.3334V58.6667C8.66732 63.087 10.4233 67.3262 13.5489 70.4518C16.6745 73.5774 20.9137 75.3334 25.334 75.3334H58.6673C63.0876 75.3334 67.3268 73.5774 70.4524 70.4518C73.578 67.3262 75.334 63.087 75.334 58.6667V25.3334C75.334 20.9131 73.578 16.6739 70.4524 13.5483C67.3268 10.4227 63.0876 8.66671 58.6673 8.66671H25.334ZM50.334 37.8334H62.834C63.9391 37.8334 64.9989 38.2724 65.7803 39.0538C66.5617 39.8352 67.0007 40.895 67.0007 42C67.0007 43.1051 66.5617 44.1649 65.7803 44.9463C64.9989 45.7277 63.9391 46.1667 62.834 46.1667H50.334C49.2289 46.1667 48.1691 45.7277 47.3877 44.9463C46.6063 44.1649 46.1673 43.1051 46.1673 42C46.1673 40.895 46.6063 39.8352 47.3877 39.0538C48.1691 38.2724 49.2289 37.8334 50.334 37.8334ZM42.0007 54.5H62.834C63.9391 54.5 64.9989 54.939 65.7803 55.7204C66.5617 56.5018 67.0007 57.5616 67.0007 58.6667C67.0007 59.7718 66.5617 60.8316 65.7803 61.613C64.9989 62.3944 63.9391 62.8334 62.834 62.8334H42.0007C40.8956 62.8334 39.8358 62.3944 39.0544 61.613C38.273 60.8316 37.834 59.7718 37.834 58.6667C37.834 57.5616 38.273 56.5018 39.0544 55.7204C39.8358 54.939 40.8956 54.5 42.0007 54.5ZM42.0007 21.1667H62.834C63.9391 21.1667 64.9989 21.6057 65.7803 22.3871C66.5617 23.1685 67.0007 24.2283 67.0007 25.3334C67.0007 26.4384 66.5617 27.4983 65.7803 28.2797C64.9989 29.0611 63.9391 29.5 62.834 29.5H42.0007C40.8956 29.5 39.8358 29.0611 39.0544 28.2797C38.273 27.4983 37.834 26.4384 37.834 25.3334C37.834 24.2283 38.273 23.1685 39.0544 22.3871C39.8358 21.6057 40.8956 21.1667 42.0007 21.1667ZM24.6173 43.0125L33.459 34.1667C33.8461 33.7799 34.3056 33.473 34.8113 33.2638C35.317 33.0545 35.859 32.9469 36.4063 32.9471C36.9536 32.9473 37.4955 33.0553 38.001 33.2649C38.5066 33.4745 38.9659 33.7817 39.3527 34.1688C39.7396 34.5559 40.0464 35.0154 40.2557 35.5211C40.4649 36.0268 40.5725 36.5688 40.5723 37.1161C40.5721 37.6634 40.4642 38.2053 40.2545 38.7108C40.0449 39.2164 39.7378 39.6757 39.3507 40.0625L27.5673 51.8459C27.1803 52.2333 26.7208 52.5406 26.215 52.7503C25.7092 52.96 25.167 53.0679 24.6194 53.0679C24.0718 53.0679 23.5296 52.96 23.0238 52.7503C22.518 52.5406 22.0585 52.2333 21.6715 51.8459L15.7798 45.9584C15.0208 45.1725 14.6009 44.12 14.6103 43.0275C14.6198 41.9351 15.058 40.89 15.8306 40.1175C16.6031 39.3449 17.6482 38.9067 18.7406 38.8972C19.8331 38.8877 20.8856 39.3077 21.6715 40.0667L24.6173 43.0125Z" fill="#676D81"/>
</svg>
