<svg width="100" height="100" viewBox="0 0 100 100" fill="none" xmlns="http://www.w3.org/2000/svg">
<path d="M33.334 8.33337H66.6673C73.2977 8.33337 79.6566 10.9673 84.345 15.6557C89.0334 20.3441 91.6673 26.703 91.6673 33.3334V66.6667C91.6673 73.2971 89.0334 79.656 84.345 84.3444C79.6566 89.0328 73.2977 91.6667 66.6673 91.6667H33.334C26.7036 91.6667 20.3447 89.0328 15.6563 84.3444C10.9679 79.656 8.33398 73.2971 8.33398 66.6667L8.33398 33.3334C8.33398 26.703 10.9679 20.3441 15.6563 15.6557C20.3447 10.9673 26.7036 8.33337 33.334 8.33337ZM33.334 16.6667C28.9137 16.6667 24.6745 18.4227 21.5489 21.5483C18.4233 24.6739 16.6673 28.9131 16.6673 33.3334V66.6667C16.6673 71.087 18.4233 75.3262 21.5489 78.4518C24.6745 81.5774 28.9137 83.3334 33.334 83.3334H66.6673C71.0876 83.3334 75.3268 81.5774 78.4524 78.4518C81.578 75.3262 83.334 71.087 83.334 66.6667V33.3334C83.334 28.9131 81.578 24.6739 78.4524 21.5483C75.3268 18.4227 71.0876 16.6667 66.6673 16.6667H33.334ZM58.334 45.8334H70.834C71.9391 45.8334 72.9989 46.2724 73.7803 47.0538C74.5617 47.8352 75.0007 48.895 75.0007 50C75.0007 51.1051 74.5617 52.1649 73.7803 52.9463C72.9989 53.7277 71.9391 54.1667 70.834 54.1667H58.334C57.2289 54.1667 56.1691 53.7277 55.3877 52.9463C54.6063 52.1649 54.1673 51.1051 54.1673 50C54.1673 48.895 54.6063 47.8352 55.3877 47.0538C56.1691 46.2724 57.2289 45.8334 58.334 45.8334ZM50.0007 62.5H70.834C71.9391 62.5 72.9989 62.939 73.7803 63.7204C74.5617 64.5018 75.0007 65.5616 75.0007 66.6667C75.0007 67.7718 74.5617 68.8316 73.7803 69.613C72.9989 70.3944 71.9391 70.8334 70.834 70.8334H50.0007C48.8956 70.8334 47.8358 70.3944 47.0544 69.613C46.273 68.8316 45.834 67.7718 45.834 66.6667C45.834 65.5616 46.273 64.5018 47.0544 63.7204C47.8358 62.939 48.8956 62.5 50.0007 62.5ZM50.0007 29.1667H70.834C71.9391 29.1667 72.9989 29.6057 73.7803 30.3871C74.5617 31.1685 75.0007 32.2283 75.0007 33.3334C75.0007 34.4384 74.5617 35.4983 73.7803 36.2797C72.9989 37.0611 71.9391 37.5 70.834 37.5H50.0007C48.8956 37.5 47.8358 37.0611 47.0544 36.2797C46.273 35.4983 45.834 34.4384 45.834 33.3334C45.834 32.2283 46.273 31.1685 47.0544 30.3871C47.8358 29.6057 48.8956 29.1667 50.0007 29.1667ZM32.6173 51.0125L41.459 42.1667C41.8461 41.7799 42.3056 41.473 42.8113 41.2638C43.317 41.0545 43.859 40.9469 44.4063 40.9471C44.9536 40.9473 45.4955 41.0553 46.001 41.2649C46.5066 41.4745 46.9659 41.7817 47.3527 42.1688C47.7396 42.5559 48.0464 43.0154 48.2557 43.5211C48.4649 44.0268 48.5725 44.5688 48.5723 45.1161C48.5721 45.6634 48.4642 46.2053 48.2545 46.7108C48.0449 47.2164 47.7378 47.6757 47.3507 48.0625L35.5673 59.8459C35.1803 60.2333 34.7208 60.5406 34.215 60.7503C33.7092 60.96 33.167 61.0679 32.6194 61.0679C32.0718 61.0679 31.5296 60.96 31.0238 60.7503C30.518 60.5406 30.0585 60.2333 29.6715 59.8459L23.7798 53.9584C23.0208 53.1725 22.6009 52.12 22.6103 51.0275C22.6198 49.9351 23.058 48.89 23.8306 48.1175C24.6031 47.3449 25.6482 46.9067 26.7406 46.8972C27.8331 46.8877 28.8856 47.3077 29.6715 48.0667L32.6173 51.0125Z" fill="#E3E3E3"/>
</svg>
