<svg width="100" height="100" viewBox="0 0 100 100" fill="none" xmlns="http://www.w3.org/2000/svg">
<path d="M33.333 8.33337H66.6663C73.2968 8.33337 79.6556 10.9673 84.344 15.6557C89.0324 20.3441 91.6664 26.703 91.6664 33.3334V66.6667C91.6663 73.2971 89.0324 79.656 84.344 84.3444C79.6556 89.0328 73.2968 91.6667 66.6663 91.6667H33.333C26.7026 91.6667 20.3437 89.0328 15.6553 84.3444C10.9669 79.656 8.33301 73.2971 8.33301 66.6667L8.33301 33.3334C8.33301 26.703 10.9669 20.3441 15.6553 15.6557C20.3437 10.9673 26.7026 8.33337 33.333 8.33337ZM33.333 16.6667C28.9127 16.6667 24.6735 18.4227 21.5479 21.5483C18.4223 24.6739 16.6663 28.9131 16.6663 33.3334V66.6667C16.6663 71.087 18.4223 75.3262 21.5479 78.4518C24.6735 81.5774 28.9127 83.3334 33.333 83.3334H66.6663C71.0866 83.3334 75.3259 81.5774 78.4515 78.4518C81.5771 75.3262 83.333 71.087 83.333 66.6667V33.3334C83.333 28.9131 81.5771 24.6739 78.4515 21.5483C75.3259 18.4227 71.0866 16.6667 66.6663 16.6667H33.333ZM58.333 45.8334H70.833C71.9381 45.8334 72.9979 46.2724 73.7793 47.0538C74.5607 47.8352 74.9997 48.895 74.9997 50C74.9997 51.1051 74.5607 52.1649 73.7793 52.9463C72.9979 53.7277 71.9381 54.1667 70.833 54.1667H58.333C57.2279 54.1667 56.1681 53.7277 55.3867 52.9463C54.6053 52.1649 54.1663 51.1051 54.1663 50C54.1663 48.895 54.6053 47.8352 55.3867 47.0538C56.1681 46.2724 57.2279 45.8334 58.333 45.8334ZM49.9997 62.5H70.833C71.9381 62.5 72.9979 62.939 73.7793 63.7204C74.5607 64.5018 74.9997 65.5616 74.9997 66.6667C74.9997 67.7718 74.5607 68.8316 73.7793 69.613C72.9979 70.3944 71.9381 70.8334 70.833 70.8334H49.9997C48.8946 70.8334 47.8348 70.3944 47.0534 69.613C46.272 68.8316 45.833 67.7718 45.833 66.6667C45.833 65.5616 46.272 64.5018 47.0534 63.7204C47.8348 62.939 48.8946 62.5 49.9997 62.5ZM49.9997 29.1667H70.833C71.9381 29.1667 72.9979 29.6057 73.7793 30.3871C74.5607 31.1685 74.9997 32.2283 74.9997 33.3334C74.9997 34.4384 74.5607 35.4983 73.7793 36.2797C72.9979 37.0611 71.9381 37.5 70.833 37.5H49.9997C48.8946 37.5 47.8348 37.0611 47.0534 36.2797C46.272 35.4983 45.833 34.4384 45.833 33.3334C45.833 32.2283 46.272 31.1685 47.0534 30.3871C47.8348 29.6057 48.8946 29.1667 49.9997 29.1667ZM32.6163 51.0125L41.458 42.1667C41.8451 41.7799 42.3047 41.473 42.8104 41.2638C43.3161 41.0545 43.858 40.9469 44.4053 40.9471C44.9526 40.9473 45.4945 41.0553 46 41.2649C46.5056 41.4745 46.9649 41.7817 47.3518 42.1688C47.7386 42.5559 48.0454 43.0154 48.2547 43.5211C48.4639 44.0268 48.5715 44.5688 48.5714 45.1161C48.5712 45.6634 48.4632 46.2053 48.2536 46.7108C48.0439 47.2164 47.7368 47.6757 47.3497 48.0625L35.5663 59.8459C35.1794 60.2333 34.7198 60.5406 34.214 60.7503C33.7082 60.96 33.166 61.0679 32.6184 61.0679C32.0709 61.0679 31.5287 60.96 31.0228 60.7503C30.517 60.5406 30.0575 60.2333 29.6705 59.8459L23.7788 53.9584C23.0199 53.1725 22.5999 52.12 22.6094 51.0275C22.6189 49.9351 23.0571 48.89 23.8296 48.1175C24.6021 47.3449 25.6472 46.9067 26.7397 46.8972C27.8322 46.8877 28.8847 47.3077 29.6705 48.0667L32.6163 51.0125Z" fill="#676D81"/>
</svg>
