<svg width="100" height="100" viewBox="0 0 100 100" fill="none" xmlns="http://www.w3.org/2000/svg">
<g clip-path="url(#clip0_467_2397)">
<path fill-rule="evenodd" clip-rule="evenodd" d="M34.3758 6.24995C32.4157 6.25142 30.5054 6.86721 28.9134 8.01072C27.3215 9.15423 26.128 10.7679 25.5008 12.625C21.5695 12.8375 18.8133 13.3312 16.5008 14.5187C12.9812 16.3227 10.1173 19.1867 8.31328 22.7062C6.26953 26.7187 6.26953 31.9562 6.26953 42.4562V69.9562C6.26953 80.4562 6.26953 85.7062 8.31328 89.7062C10.1173 93.2257 12.9812 96.0897 16.5008 97.8937C20.5133 99.9375 25.7508 99.9375 36.2508 99.9375H52.1258C49.6106 98.1602 47.341 96.0587 45.3758 93.6875H36.2508C30.8945 93.6875 27.2508 93.6875 24.4383 93.4562C21.7008 93.2312 20.2945 92.825 19.3195 92.3312C16.9676 91.1328 15.0554 89.2206 13.857 86.8687C13.357 85.8937 12.9508 84.4875 12.732 81.7437C12.5008 78.9312 12.4945 75.3062 12.4945 69.9312V42.4312C12.4945 37.0812 12.5008 33.4312 12.732 30.6187C12.957 27.8875 13.3633 26.4812 13.857 25.5062C15.057 23.1562 16.9695 21.2437 19.3195 20.0437C20.2945 19.5437 21.7008 19.1375 24.4383 18.9187L24.9945 18.875V21.8062C24.9945 24.2926 25.9823 26.6772 27.7404 28.4353C29.4986 30.1935 31.8831 31.1812 34.3695 31.1812H65.6195C68.1059 31.1812 70.4905 30.1935 72.2487 28.4353C74.0068 26.6772 74.9945 24.2926 74.9945 21.8062V18.8687L75.5508 18.9187C78.2883 19.1375 79.6945 19.5437 80.6695 20.0437C83.0195 21.2437 84.932 23.1562 86.132 25.5062C86.632 26.4812 87.0383 27.8812 87.257 30.625C87.4695 33.2125 87.4883 36.5 87.4945 41.1875C89.7362 42.3375 91.8195 43.7062 93.7445 45.2937V42.4375C93.7445 31.9375 93.7445 26.6875 91.7008 22.6875C89.9037 19.1628 87.0379 16.297 83.5133 14.5C81.1883 13.3125 78.4508 12.8125 74.5133 12.6062C73.8861 10.7492 72.6926 9.13548 71.1006 7.99197C69.5087 6.84846 67.5984 6.23267 65.6383 6.2312H63.9633C61.8008 2.4937 57.7633 -0.0187988 53.1508 -0.0187988H46.9008C42.2758 -0.0187988 38.2133 2.4937 36.0883 6.2312H34.4133L34.3758 6.24995ZM40.557 10.9375C40.2828 11.4125 39.8883 11.807 39.4132 12.0813C38.9382 12.3555 38.3993 12.4999 37.8508 12.5H34.3758C33.547 12.5 32.7521 12.8292 32.1661 13.4152C31.58 14.0013 31.2508 14.7962 31.2508 15.625V21.875C31.2508 22.7038 31.58 23.4986 32.1661 24.0847C32.7521 24.6707 33.547 25 34.3758 25H65.6258C66.4546 25 67.2494 24.6707 67.8355 24.0847C68.4215 23.4986 68.7508 22.7038 68.7508 21.875V15.625C68.7508 14.7962 68.4215 14.0013 67.8355 13.4152C67.2494 12.8292 66.4546 12.5 65.6258 12.5H62.1508C61.6022 12.4999 61.0634 12.3555 60.5883 12.0813C60.1133 11.807 59.7188 11.4125 59.4445 10.9375L58.5445 9.37495C57.9963 8.42277 57.2067 7.63196 56.2553 7.08222C55.304 6.53249 54.2245 6.24326 53.1258 6.2437H46.8758C45.777 6.24326 44.6976 6.53249 43.7463 7.08222C42.7949 7.63196 42.0053 8.42277 41.457 9.37495L40.557 10.9375Z" fill="#676D81"/>
<path d="M75 59.375C75 58.5462 74.6708 57.7513 74.0847 57.1653C73.4987 56.5792 72.7038 56.25 71.875 56.25C71.0462 56.25 70.2513 56.5792 69.6653 57.1653C69.0792 57.7513 68.75 58.5462 68.75 59.375V71.875C68.75 72.7038 69.0792 73.4987 69.6653 74.0847C70.2513 74.6708 71.0462 75 71.875 75H81.25C82.0788 75 82.8737 74.6708 83.4597 74.0847C84.0458 73.4987 84.375 72.7038 84.375 71.875C84.375 71.0462 84.0458 70.2513 83.4597 69.6653C82.8737 69.0792 82.0788 68.75 81.25 68.75H75V59.375Z" fill="#676D81"/>
<path fill-rule="evenodd" clip-rule="evenodd" d="M71.875 100C87.4375 100 100 87.4375 100 71.875C100 56.3125 87.4375 43.75 71.875 43.75C56.3125 43.75 43.75 56.3125 43.75 71.875C43.75 87.4375 56.3125 100 71.875 100ZM71.875 93.75C83.9375 93.75 93.75 83.9375 93.75 71.875C93.75 59.8125 83.9375 50 71.875 50C59.8125 50 50 59.8125 50 71.875C50 83.9375 59.8125 93.75 71.875 93.75Z" fill="#676D81"/>
</g>
<defs>
<clipPath id="clip0_467_2397">
<rect width="100" height="100" fill="white"/>
</clipPath>
</defs>
</svg>
