<svg width="100" height="100" viewBox="0 0 100 100" fill="none" xmlns="http://www.w3.org/2000/svg">
<g clip-path="url(#clip0_153_430)">
<path fill-rule="evenodd" clip-rule="evenodd" d="M34.3748 6.24995C32.4147 6.25142 30.5044 6.86721 28.9125 8.01072C27.3205 9.15423 26.127 10.7679 25.4998 12.625C21.5686 12.8375 18.8123 13.3312 16.4998 14.5187C12.9803 16.3227 10.1163 19.1867 8.3123 22.7062C6.26855 26.7187 6.26855 31.9562 6.26855 42.4562V69.9562C6.26855 80.4562 6.26855 85.7062 8.3123 89.7062C10.1163 93.2257 12.9803 96.0897 16.4998 97.8937C20.5123 99.9375 25.7498 99.9375 36.2498 99.9375H52.1248C49.6096 98.1602 47.34 96.0587 45.3748 93.6875H36.2498C30.8936 93.6875 27.2498 93.6875 24.4373 93.4562C21.6998 93.2312 20.2936 92.825 19.3186 92.3312C16.9666 91.1328 15.0545 89.2206 13.8561 86.8687C13.3561 85.8937 12.9498 84.4875 12.7311 81.7437C12.4998 78.9312 12.4936 75.3062 12.4936 69.9312V42.4312C12.4936 37.0812 12.4998 33.4312 12.7311 30.6187C12.9561 27.8875 13.3623 26.4812 13.8561 25.5062C15.0561 23.1562 16.9686 21.2437 19.3186 20.0437C20.2936 19.5437 21.6998 19.1375 24.4373 18.9187L24.9936 18.875V21.8062C24.9936 24.2926 25.9813 26.6772 27.7394 28.4353C29.4976 30.1935 31.8822 31.1812 34.3686 31.1812H65.6185C68.105 31.1812 70.4895 30.1935 72.2477 28.4353C74.0058 26.6772 74.9936 24.2926 74.9936 21.8062V18.8687L75.5498 18.9187C78.2873 19.1375 79.6936 19.5437 80.6685 20.0437C83.0185 21.2437 84.9311 23.1562 86.1311 25.5062C86.6311 26.4812 87.0373 27.8812 87.2561 30.625C87.4686 33.2125 87.4873 36.5 87.4936 41.1875C89.7352 42.3375 91.8186 43.7062 93.7436 45.2937V42.4375C93.7436 31.9375 93.7436 26.6875 91.6998 22.6875C89.9028 19.1628 87.0369 16.297 83.5123 14.5C81.1873 13.3125 78.4498 12.8125 74.5123 12.6062C73.8851 10.7492 72.6916 9.13548 71.0996 7.99197C69.5077 6.84846 67.5974 6.23267 65.6373 6.2312H63.9623C61.7998 2.4937 57.7623 -0.0187988 53.1498 -0.0187988H46.8998C42.2748 -0.0187988 38.2123 2.4937 36.0873 6.2312H34.4123L34.3748 6.24995ZM40.5561 10.9375C40.2818 11.4125 39.8873 11.807 39.4123 12.0813C38.9372 12.3555 38.3983 12.4999 37.8498 12.5H34.3748C33.546 12.5 32.7511 12.8292 32.1651 13.4152C31.579 14.0013 31.2498 14.7962 31.2498 15.625V21.875C31.2498 22.7038 31.579 23.4986 32.1651 24.0847C32.7511 24.6707 33.546 25 34.3748 25H65.6248C66.4536 25 67.2485 24.6707 67.8345 24.0847C68.4206 23.4986 68.7498 22.7038 68.7498 21.875V15.625C68.7498 14.7962 68.4206 14.0013 67.8345 13.4152C67.2485 12.8292 66.4536 12.5 65.6248 12.5H62.1498C61.6013 12.4999 61.0624 12.3555 60.5873 12.0813C60.1123 11.807 59.7178 11.4125 59.4436 10.9375L58.5436 9.37495C57.9953 8.42277 57.2057 7.63196 56.2543 7.08222C55.303 6.53249 54.2236 6.24326 53.1248 6.2437H46.8748C45.7761 6.24326 44.6966 6.53249 43.7453 7.08222C42.7939 7.63196 42.0043 8.42277 41.4561 9.37495L40.5561 10.9375Z" fill="#676D81"/>
<path d="M75 59.375C75 58.5462 74.6708 57.7513 74.0847 57.1653C73.4987 56.5792 72.7038 56.25 71.875 56.25C71.0462 56.25 70.2513 56.5792 69.6653 57.1653C69.0792 57.7513 68.75 58.5462 68.75 59.375V71.875C68.75 72.7038 69.0792 73.4987 69.6653 74.0847C70.2513 74.6708 71.0462 75 71.875 75H81.25C82.0788 75 82.8737 74.6708 83.4597 74.0847C84.0458 73.4987 84.375 72.7038 84.375 71.875C84.375 71.0462 84.0458 70.2513 83.4597 69.6653C82.8737 69.0792 82.0788 68.75 81.25 68.75H75V59.375Z" fill="#676D81"/>
<path fill-rule="evenodd" clip-rule="evenodd" d="M71.875 100C87.4375 100 100 87.4375 100 71.875C100 56.3125 87.4375 43.75 71.875 43.75C56.3125 43.75 43.75 56.3125 43.75 71.875C43.75 87.4375 56.3125 100 71.875 100ZM71.875 93.75C83.9375 93.75 93.75 83.9375 93.75 71.875C93.75 59.8125 83.9375 50 71.875 50C59.8125 50 50 59.8125 50 71.875C50 83.9375 59.8125 93.75 71.875 93.75Z" fill="#676D81"/>
</g>
<defs>
<clipPath id="clip0_153_430">
<rect width="100" height="100" fill="white"/>
</clipPath>
</defs>
</svg>
