<svg width="100" height="100" viewBox="0 0 100 100" fill="none" xmlns="http://www.w3.org/2000/svg">
<path d="M83.5664 83.5703L76.6719 85.418L72.6016 70.2266C75.821 68.6143 78.386 65.9412 79.864 62.6579C81.3419 59.3747 81.6424 55.6822 80.7148 52.2031C75.793 33.8438 65.5664 17.7422 65.1328 17.0664C64.78 16.5149 64.263 16.0882 63.6546 15.8464C63.0462 15.6046 62.3773 15.5599 61.7422 15.7188L53.2031 17.8555C53.2031 14.6328 53.1328 12.6094 53.1211 12.3555C53.0899 11.6842 52.8432 11.0408 52.4175 10.5208C51.9918 10.0008 51.4098 9.63184 50.7578 9.46875L38.2578 6.34375C37.6227 6.18492 36.9538 6.22956 36.3454 6.47137C35.737 6.71317 35.22 7.13993 34.8672 7.69141C34.4336 8.36719 24.207 24.4609 19.2852 42.8477C18.3576 46.3267 18.6581 50.0192 20.136 53.3024C21.614 56.5857 24.179 59.2589 27.3984 60.8711L23.3281 76.043L16.4336 74.1953C15.6328 73.9809 14.7795 74.0933 14.0616 74.508C13.3437 74.9226 12.8199 75.6054 12.6055 76.4063C12.391 77.2071 12.5035 78.0603 12.9181 78.7782C13.3327 79.4961 14.0156 80.0199 14.8164 80.2344L33.5664 85.2578C33.8303 85.3273 34.1021 85.3627 34.375 85.3633C35.1338 85.3642 35.867 85.0889 36.4378 84.5889C37.0085 84.0889 37.3779 83.3983 37.4769 82.646C37.5759 81.8937 37.3978 81.1311 36.9758 80.5004C36.5538 79.8698 35.9168 79.4142 35.1836 79.2188L29.3633 77.6562L33.4336 62.4648C33.75 62.4844 34.0625 62.4961 34.375 62.4961C37.4752 62.4874 40.5033 61.5593 43.076 59.8294C45.6487 58.0994 47.6505 55.6452 48.8281 52.7773C49.2891 55.2656 49.8438 57.7852 50.5117 60.2852C51.406 63.61 53.3712 66.5473 56.1034 68.6425C58.8355 70.7376 62.182 71.8738 65.625 71.875C65.9375 71.875 66.25 71.875 66.5664 71.8438L70.6367 87.0352L64.8164 88.5977C64.0866 88.796 63.4535 89.2522 63.0344 89.8818C62.6154 90.5113 62.4389 91.2715 62.5376 92.0213C62.6363 92.7711 63.0036 93.4596 63.5714 93.9592C64.1391 94.4589 64.8687 94.7357 65.625 94.7383C65.8979 94.7377 66.1697 94.7023 66.4336 94.6328L85.1836 89.6094C85.9844 89.3949 86.6673 88.8711 87.0819 88.1532C87.4965 87.4353 87.609 86.5821 87.3945 85.7813C87.1801 84.9804 86.6563 84.2976 85.9384 83.883C85.2205 83.4683 84.3672 83.3559 83.5664 83.5703ZM61.0234 22.3398C62.1094 24.1758 63.8477 27.2383 65.7891 31.1133L53.125 34.2852C52.9609 30.3789 52.9766 27.1562 53.0273 24.9922C53.0273 24.7734 53.0469 24.5547 53.0586 24.3359L61.0234 22.3398ZM38.9766 12.9648L46.9336 14.9531C46.957 16.625 46.9336 19.1211 46.8516 22.168C46.8281 22.6406 46.7891 23.4141 46.7617 24.4492C46.7617 24.8398 46.7227 25.2305 46.6992 25.6211L33.8633 22.4336C35.9375 18.2305 37.8281 14.9063 38.9766 12.9648ZM43.4258 49.3281C42.754 51.7011 41.1742 53.7138 39.0287 54.9301C36.8832 56.1464 34.3448 56.4682 31.9637 55.8259C29.5825 55.1836 27.5504 53.6289 26.3076 51.4987C25.0648 49.3684 24.7115 46.8343 25.3242 44.4453C26.8625 38.8892 28.8213 33.4582 31.1836 28.1992L46.2539 31.9648C45.728 37.8128 44.7829 43.6155 43.4258 49.3281ZM56.5664 58.6719C55.036 52.7544 54.0154 46.7167 53.5156 40.625L68.5195 36.875C71.0129 42.3542 73.07 48.0215 74.6719 53.8242C75.011 55.0197 75.1091 56.2708 74.9603 57.5045C74.8116 58.7383 74.4191 59.9302 73.8056 61.0109C73.1921 62.0916 72.3699 63.0395 71.3867 63.7996C70.4036 64.5597 69.2791 65.1167 68.0788 65.4383C66.8784 65.7598 65.6261 65.8396 64.3946 65.6728C63.1632 65.506 61.9771 65.0961 60.9055 64.4669C59.8339 63.8376 58.8981 63.0016 58.1526 62.0074C57.407 61.0132 56.8665 59.8807 56.5625 58.6758L56.5664 58.6719ZM72.1914 17.0234C72.0075 16.6562 71.8978 16.2563 71.8685 15.8466C71.8393 15.437 71.8911 15.0255 72.021 14.6359C72.1508 14.2463 72.3563 13.886 72.6255 13.5758C72.8947 13.2657 73.2224 13.0116 73.5898 12.8281L79.8398 9.70313C80.2071 9.51948 80.607 9.40998 81.0166 9.38087C81.4262 9.35176 81.8376 9.40361 82.2271 9.53347C82.6167 9.66332 82.9769 9.86864 83.2871 10.1377C83.5973 10.4067 83.8515 10.7343 84.0352 11.1016C84.2188 11.4689 84.3283 11.8687 84.3574 12.2783C84.3865 12.6879 84.3347 13.0993 84.2048 13.4888C84.075 13.8784 83.8696 14.2386 83.6006 14.5488C83.3315 14.859 83.004 15.1132 82.6367 15.2969L76.3867 18.4219C76.0195 18.6058 75.6196 18.7155 75.2099 18.7448C74.8002 18.774 74.3888 18.7222 73.9992 18.5923C73.6095 18.4624 73.2493 18.257 72.9391 17.9878C72.6289 17.7186 72.3748 17.3909 72.1914 17.0234ZM90.625 28.125C90.625 28.9538 90.2958 29.7487 89.7097 30.3347C89.1237 30.9208 88.3288 31.25 87.5 31.25H81.25C80.4212 31.25 79.6263 30.9208 79.0403 30.3347C78.4542 29.7487 78.125 28.9538 78.125 28.125C78.125 27.2962 78.4542 26.5013 79.0403 25.9153C79.6263 25.3292 80.4212 25 81.25 25H87.5C88.3288 25 89.1237 25.3292 89.7097 25.9153C90.2958 26.5013 90.625 27.2962 90.625 28.125ZM12.8281 7.97656C13.0116 7.60909 13.2657 7.28138 13.5758 7.01218C13.886 6.74298 14.2463 6.53756 14.6359 6.40768C15.0255 6.2778 15.437 6.226 15.8466 6.25525C16.2563 6.28449 16.6562 6.39421 17.0234 6.57813L23.2734 9.70313C23.6407 9.88677 23.9683 10.141 24.2373 10.4512C24.5064 10.7614 24.7117 11.1216 24.8415 11.5112C24.9714 11.9007 25.0232 12.3121 24.9941 12.7217C24.965 13.1313 24.8555 13.5311 24.6719 13.8984C24.4882 14.2657 24.234 14.5933 23.9238 14.8623C23.6136 15.1314 23.2534 15.3367 22.8638 15.4665C22.0771 15.7288 21.2183 15.6678 20.4766 15.2969L14.2266 12.1719C13.8591 11.9884 13.5314 11.7343 13.2622 11.4242C12.993 11.114 12.7876 10.7537 12.6577 10.3641C12.5278 9.97447 12.476 9.56304 12.5052 9.15337C12.5345 8.74369 12.6442 8.3438 12.8281 7.97656ZM15.625 28.125H9.375C8.5462 28.125 7.75134 27.7958 7.16529 27.2097C6.57924 26.6237 6.25 25.8288 6.25 25C6.25 24.1712 6.57924 23.3763 7.16529 22.7903C7.75134 22.2042 8.5462 21.875 9.375 21.875H15.625C16.4538 21.875 17.2487 22.2042 17.8347 22.7903C18.4208 23.3763 18.75 24.1712 18.75 25C18.75 25.8288 18.4208 26.6237 17.8347 27.2097C17.2487 27.7958 16.4538 28.125 15.625 28.125Z" fill="#E3E3E3"/>
</svg>
