<svg width="85" height="89" viewBox="0 0 85 89" fill="none" xmlns="http://www.w3.org/2000/svg">
<path d="M77.5664 77.5703L70.6719 79.418L66.6016 64.2266C69.821 62.6143 72.386 59.9412 73.864 56.6579C75.3419 53.3747 75.6424 49.6822 74.7148 46.2031C69.793 27.8438 59.5664 11.7422 59.1328 11.0664C58.78 10.5149 58.263 10.0882 57.6546 9.84636C57.0462 9.60456 56.3773 9.55992 55.7422 9.71875L47.2031 11.8555C47.2031 8.63281 47.1328 6.60938 47.1211 6.35547C47.0899 5.68415 46.8432 5.04076 46.4175 4.52076C45.9918 4.00075 45.4098 3.63184 44.7578 3.46875L32.2578 0.343751C31.6227 0.184922 30.9538 0.22956 30.3454 0.471365C29.737 0.71317 29.22 1.13993 28.8672 1.69141C28.4336 2.36719 18.207 18.4609 13.2852 36.8477C12.3576 40.3267 12.6581 44.0192 14.136 47.3024C15.614 50.5857 18.179 53.2589 21.3984 54.8711L17.3281 70.043L10.4336 68.1953C9.63276 67.9809 8.77954 68.0933 8.06163 68.508C7.34372 68.9226 6.81992 69.6054 6.60547 70.4063C6.39102 71.2071 6.50348 72.0603 6.91811 72.7782C7.33274 73.4961 8.01558 74.0199 8.81641 74.2344L27.5664 79.2578C27.8303 79.3273 28.1021 79.3627 28.375 79.3633C29.1338 79.3642 29.867 79.0889 30.4378 78.5889C31.0085 78.0889 31.3779 77.3983 31.4769 76.646C31.5759 75.8937 31.3978 75.1311 30.9758 74.5004C30.5538 73.8698 29.9168 73.4142 29.1836 73.2188L23.3633 71.6562L27.4336 56.4648C27.75 56.4844 28.0625 56.4961 28.375 56.4961C31.4752 56.4874 34.5033 55.5593 37.076 53.8294C39.6487 52.0994 41.6505 49.6452 42.8281 46.7773C43.2891 49.2656 43.8438 51.7852 44.5117 54.2852C45.406 57.61 47.3712 60.5473 50.1034 62.6425C52.8355 64.7376 56.182 65.8738 59.625 65.875C59.9375 65.875 60.25 65.875 60.5664 65.8438L64.6367 81.0352L58.8164 82.5977C58.0866 82.796 57.4535 83.2522 57.0344 83.8818C56.6154 84.5113 56.4389 85.2715 56.5376 86.0213C56.6363 86.7711 57.0036 87.4596 57.5714 87.9592C58.1391 88.4589 58.8687 88.7357 59.625 88.7383C59.8979 88.7377 60.1697 88.7023 60.4336 88.6328L79.1836 83.6094C79.9844 83.3949 80.6673 82.8711 81.0819 82.1532C81.4965 81.4353 81.609 80.5821 81.3945 79.7813C81.1801 78.9804 80.6563 78.2976 79.9384 77.883C79.2205 77.4683 78.3672 77.3559 77.5664 77.5703ZM55.0234 16.3398C56.1094 18.1758 57.8477 21.2383 59.7891 25.1133L47.125 28.2852C46.9609 24.3789 46.9766 21.1562 47.0273 18.9922C47.0273 18.7734 47.0469 18.5547 47.0586 18.3359L55.0234 16.3398ZM32.9766 6.96484L40.9336 8.95313C40.957 10.625 40.9336 13.1211 40.8516 16.168C40.8281 16.6406 40.7891 17.4141 40.7617 18.4492C40.7617 18.8398 40.7227 19.2305 40.6992 19.6211L27.8633 16.4336C29.9375 12.2305 31.8281 8.90625 32.9766 6.96484ZM37.4258 43.3281C36.754 45.7011 35.1742 47.7138 33.0287 48.9301C30.8832 50.1464 28.3448 50.4682 25.9637 49.8259C23.5825 49.1836 21.5504 47.6289 20.3076 45.4987C19.0648 43.3684 18.7115 40.8343 19.3242 38.4453C20.8625 32.8892 22.8213 27.4582 25.1836 22.1992L40.2539 25.9648C39.728 31.8128 38.7829 37.6155 37.4258 43.3281ZM50.5664 52.6719C49.036 46.7544 48.0154 40.7167 47.5156 34.625L62.5195 30.875C65.0129 36.3542 67.07 42.0215 68.6719 47.8242C69.011 49.0197 69.1091 50.2708 68.9603 51.5045C68.8116 52.7383 68.4191 53.9302 67.8056 55.0109C67.1921 56.0916 66.3699 57.0395 65.3867 57.7996C64.4036 58.5597 63.2791 59.1167 62.0788 59.4383C60.8784 59.7598 59.6261 59.8396 58.3946 59.6728C57.1632 59.506 55.9771 59.0961 54.9055 58.4669C53.8339 57.8376 52.8981 57.0016 52.1526 56.0074C51.407 55.0132 50.8665 53.8807 50.5625 52.6758L50.5664 52.6719ZM66.1914 11.0234C66.0075 10.6562 65.8978 10.2563 65.8685 9.84663C65.8393 9.43696 65.8911 9.02553 66.021 8.63589C66.1508 8.24625 66.3563 7.88604 66.6255 7.57584C66.8947 7.26565 67.2224 7.01157 67.5898 6.82813L73.8398 3.70313C74.2071 3.51948 74.607 3.40998 75.0166 3.38087C75.4262 3.35176 75.8376 3.40361 76.2271 3.53347C76.6167 3.66332 76.9769 3.86864 77.2871 4.1377C77.5973 4.40675 77.8515 4.73427 78.0352 5.10156C78.2188 5.46885 78.3283 5.86872 78.3574 6.27833C78.3865 6.68794 78.3347 7.09927 78.2048 7.48885C78.075 7.87842 77.8696 8.2386 77.6006 8.54882C77.3315 8.85904 77.004 9.11323 76.6367 9.29688L70.3867 12.4219C70.0195 12.6058 69.6196 12.7155 69.2099 12.7448C68.8002 12.774 68.3888 12.7222 67.9992 12.5923C67.6095 12.4624 67.2493 12.257 66.9391 11.9878C66.6289 11.7186 66.3748 11.3909 66.1914 11.0234ZM84.625 22.125C84.625 22.9538 84.2958 23.7487 83.7097 24.3347C83.1237 24.9208 82.3288 25.25 81.5 25.25H75.25C74.4212 25.25 73.6263 24.9208 73.0403 24.3347C72.4542 23.7487 72.125 22.9538 72.125 22.125C72.125 21.2962 72.4542 20.5013 73.0403 19.9153C73.6263 19.3292 74.4212 19 75.25 19H81.5C82.3288 19 83.1237 19.3292 83.7097 19.9153C84.2958 20.5013 84.625 21.2962 84.625 22.125ZM6.82812 1.97656C7.01157 1.60909 7.26565 1.28138 7.57584 1.01218C7.88603 0.742975 8.24625 0.53756 8.63589 0.40768C9.02553 0.277799 9.43696 0.226001 9.84663 0.255248C10.2563 0.284494 10.6562 0.394212 11.0234 0.578126L17.2734 3.70313C17.6407 3.88677 17.9683 4.14096 18.2373 4.45118C18.5064 4.76141 18.7117 5.12159 18.8415 5.51116C18.9714 5.90073 19.0232 6.31206 18.9941 6.72167C18.965 7.13128 18.8555 7.53115 18.6719 7.89844C18.4882 8.26573 18.234 8.59325 17.9238 8.86231C17.6136 9.13136 17.2534 9.33668 16.8638 9.46653C16.0771 9.72879 15.2183 9.66776 14.4766 9.29688L8.22656 6.17188C7.85909 5.98843 7.53138 5.73435 7.26218 5.42416C6.99297 5.11397 6.78756 4.75375 6.65768 4.36411C6.5278 3.97447 6.476 3.56304 6.50525 3.15337C6.53449 2.74369 6.64421 2.3438 6.82812 1.97656ZM9.625 22.125H3.375C2.5462 22.125 1.75134 21.7958 1.16529 21.2097C0.57924 20.6237 0.25 19.8288 0.25 19C0.25 18.1712 0.57924 17.3763 1.16529 16.7903C1.75134 16.2042 2.5462 15.875 3.375 15.875H9.625C10.4538 15.875 11.2487 16.2042 11.8347 16.7903C12.4208 17.3763 12.75 18.1712 12.75 19C12.75 19.8288 12.4208 20.6237 11.8347 21.2097C11.2487 21.7958 10.4538 22.125 9.625 22.125Z" fill="#676D81"/>
</svg>
